HIERARCHY
ROOT Hips
{
	OFFSET 0.00000 0.00000 0.00000
	CHANNELS 6 Xposition Yposition Zposition Zrotation Yrotation Xrotation 
	JOINT LHipJoint
	{
		OFFSET 0 0 0
		CHANNELS 3 Zrotation Yrotation Xrotation
		JOINT LeftHip
		{
			OFFSET 1.52977 -1.71332 0.88991
			CHANNELS 3 Zrotation Yrotation Xrotation
			JOINT LeftKnee
			{
				OFFSET 2.23949 -6.15296 0.00000
				CHANNELS 3 Zrotation Yrotation Xrotation
				JOINT LeftAnkle
				{
					OFFSET 2.68396 -7.37412 0.00000
					CHANNELS 3 Zrotation Yrotation Xrotation
					JOINT LeftToe
					{
						OFFSET 0.20538 -0.56428 2.52710
						CHANNELS 3 Zrotation Yrotation Xrotation
						End Site
						{
							OFFSET 0.00000 -0.00000 1.29919
						}
					}
				}
			}
		}
	}
	JOINT RHipJoint
	{
		OFFSET 0 0 0
		CHANNELS 3 Zrotation Yrotation Xrotation
		JOINT RightHip
		{
			OFFSET -1.45689 -1.71333 0.88991
			CHANNELS 3 Zrotation Yrotation Xrotation
			JOINT RightKnee
			{
				OFFSET -2.36700 -6.50329 0.00000
				CHANNELS 3 Zrotation Yrotation Xrotation
				JOINT RightAnkle
				{
					OFFSET -2.69814 -7.41308 0.00000
					CHANNELS 3 Zrotation Yrotation Xrotation
					JOINT RightToe
					{
						OFFSET -0.18734 -0.51471 2.37479
						CHANNELS 3 Zrotation Yrotation Xrotation
						End Site
						{
							OFFSET -0.00000 -0.00000 1.22113
						}
					}
				}
			}
		}
	}
	JOINT lowerback
	{
		OFFSET 0 0 0
		CHANNELS 3 Zrotation Yrotation Xrotation
		JOINT Chest
		{
			OFFSET 0.04294 2.14638 -0.31163
			CHANNELS 3 Zrotation Yrotation Xrotation
			JOINT Chest2
			{
				OFFSET -0.00400 2.17216 0.01486
				CHANNELS 3 Zrotation Yrotation Xrotation
				JOINT lowerneck
				{
					OFFSET 0 0 0
					CHANNELS 3 Zrotation Yrotation Xrotation
					JOINT Neck
					{
						OFFSET 0.03869 1.76598 0.14916
						CHANNELS 3 Zrotation Yrotation Xrotation
						JOINT Head
						{
							OFFSET -0.00760 1.75513 -0.18948
							CHANNELS 3 Zrotation Yrotation Xrotation
							End Site
							{
								OFFSET -0.00601 1.82444 -0.08310
							}
						}
					}
				}
				JOINT LeftCollar
				{
					OFFSET 0 0 0
					CHANNELS 3 Zrotation Yrotation Xrotation
					JOINT LeftShoulder
					{
						OFFSET 3.73696 0.92058 0.01733
CHANNELS 3 Zrotation Xrotation Yrotation
						JOINT LeftElbow
						{
OFFSET 0 -5.227710 0.000000
CHANNELS 3 Zrotation Xrotation Yrotation
							JOINT LeftWrist
							{
OFFSET 0 -3.452510 0.000000
CHANNELS 3 Zrotation Xrotation Yrotation
								JOINT lhand
								{
									OFFSET 0 0 0
CHANNELS 3 Zrotation Xrotation Yrotation
									JOINT LFingers
									{
OFFSET 0 -0.552120 0.000000
CHANNELS 3 Zrotation Xrotation Yrotation
										End Site
										{
OFFSET 0 -0.445130 0.000000
										}
									}
								}
								JOINT LThumb
								{
OFFSET 0 0.000000 0.000000
CHANNELS 3 Zrotation Xrotation Yrotation
									End Site
									{
OFFSET 0 -0.451930 0.451930
									}
								}
							}
						}
					}
				}
				JOINT RightCollar
				{
					OFFSET 0 0 0
					CHANNELS 3 Zrotation Yrotation Xrotation
					JOINT RightShoulder
					{
						OFFSET -3.63819 0.83094 -0.13694
CHANNELS 3 Zrotation Xrotation Yrotation
						JOINT RightElbow
						{
OFFSET 0 -5.239800 -0.000000
CHANNELS 3 Zrotation Xrotation Yrotation
							JOINT RightWrist
							{
OFFSET 0 -3.480420 -0.000000
CHANNELS 3 Zrotation Xrotation Yrotation
								JOINT rhand
								{
									OFFSET 0 0 0
CHANNELS 3 Zrotation Xrotation Yrotation
									JOINT RFingers
									{
OFFSET 0 -0.618710 0.000000
CHANNELS 3 Zrotation Xrotation Yrotation
										End Site
										{
OFFSET 0 -0.498820 0.000000
										}
									}
								}
								JOINT RThumb
								{
OFFSET 0 0.000000 0.000000
CHANNELS 3 Zrotation Xrotation Yrotation
									End Site
									{
OFFSET 0 -0.506440 0.506440
									}
								}
							}
						}
					}
				}
			}
		}
	}
}
MOTION
Frames: 10
Frame Time: 0.008333333333333333
9.465551 17.505427 -7.212633 625.708454 -89.104729 -604.967140 0.000000 0.000000 0.000000 -16.009704 -8.516991 -50.594562 2.589337 9.993085 28.959187 0.636957 0.462856 14.890551 0.093618 -1.954593 -5.380825 0.000000 0.000000 0.000000 20.559952 14.598182 -38.520801 -5.526917 -13.953656 43.052063 -0.031862 -2.875820 -5.596141 -0.000928 0.193760 -0.532328 5.091120 -1.790195 24.430903 -0.184351 -1.565024 6.368966 -2.634576 -0.994095 -6.660793 3.865756 1.533841 5.391278 -0.861771 2.146281 -17.926638 -1.051133 0.716724 -6.269843 0.000000 0.000000 0.000000 4.981247 0.598507 -32.210931 17.647240 -27.703174 4.384006 20.279020 -19.025791 -8.862944 0.000000 0.000000 0.000000 -7.125000 0.000000 0.000000 -5.772415 39.355711 -0.806021 0.000000 0.000000 0.000000 0.428335 -2.204447 27.531147 -18.002164 -28.160004 -4.550313 -22.774206 4.212158 8.298560 0.000000 0.000000 0.000000 7.125000 0.000000 0.000000 3.549073 38.945977 0.530105
9.712319 17.525930 -7.224815 626.738825 -89.295151 -605.529048 0.000000 0.000000 0.000000 -15.813911 -8.815882 -51.122797 3.372547 11.272109 33.206681 0.308416 0.036298 10.455128 0.210536 -2.950815 -8.142151 0.000000 0.000000 0.000000 20.086206 15.079188 -39.885004 -5.486207 -13.911208 42.882964 -0.000771 -3.612374 -5.192973 -0.000083 -0.052754 0.144952 5.045164 -1.761020 24.265767 -0.201812 -1.532102 6.241717 -2.638836 -0.975635 -6.715507 3.856234 1.494471 5.371953 -0.888196 2.081374 -18.071333 -1.054299 0.683020 -6.313662 0.000000 0.000000 0.000000 4.941737 0.732598 -32.240648 17.612805 -27.658556 4.368036 20.039382 -19.159863 -8.914341 0.000000 0.000000 0.000000 -7.125000 0.000000 0.000000 -5.986488 39.391226 -0.830880 0.000000 0.000000 0.000000 0.265436 -2.130060 27.476656 -17.931076 -28.068912 -4.516771 -22.603540 4.239767 8.300084 0.000000 0.000000 0.000000 7.125000 0.000000 0.000000 3.696547 38.934735 0.553214
9.957777 17.555288 -7.233054 623.078142 -89.663018 -601.462327 0.000000 0.000000 0.000000 -15.903892 -9.096198 -51.300982 4.235775 12.466853 37.405504 0.142853 0.759133 6.905016 0.285098 -3.433905 -9.489042 0.000000 0.000000 0.000000 19.347587 15.542521 -41.091315 -5.409730 -13.830892 42.564091 0.033159 -4.347265 -4.679883 -0.001894 -0.279051 0.766676 4.835501 -1.750441 24.204663 -0.267750 -1.560735 6.108597 -2.582266 -0.986404 -6.833111 3.844077 1.474364 5.317001 -0.911993 2.041218 -18.183684 -1.057301 0.661865 -6.340474 0.000000 0.000000 0.000000 4.922788 0.890459 -32.221374 17.560309 -27.590507 4.343718 19.770447 -19.281156 -9.010343 0.000000 0.000000 0.000000 -7.125000 0.000000 0.000000 -6.232513 39.471057 -0.853018 0.000000 0.000000 0.000000 0.135392 -2.057632 27.385011 -17.857609 -27.974424 -4.482212 -22.448745 4.254271 8.298164 0.000000 0.000000 0.000000 7.125000 0.000000 0.000000 3.829830 38.920893 0.574536
10.202501 17.587329 -7.238965 619.684247 -90.126277 -597.726895 0.000000 0.000000 0.000000 -16.119118 -9.408839 -51.082792 5.127907 13.523773 41.367169 0.066408 1.620140 4.566708 0.310536 -3.582729 -9.905569 0.000000 0.000000 0.000000 18.485464 15.908987 -42.188048 -5.309535 -13.724027 42.143226 0.067457 -5.071520 -4.121632 -0.007098 -0.541805 1.488836 4.592541 -1.778398 24.199702 -0.349465 -1.647525 5.992686 -2.505697 -1.024820 -6.964260 3.826011 1.458646 5.232787 -0.917882 2.007290 -18.298329 -1.053761 0.642258 -6.363134 0.000000 0.000000 0.000000 4.943107 1.023264 -32.188785 17.484765 -27.492357 4.308762 19.537184 -19.287092 -9.085013 0.000000 0.000000 0.000000 -7.125000 0.000000 0.000000 -6.444844 39.531033 -0.872862 0.000000 0.000000 0.000000 0.053192 -2.017249 27.209446 -17.794168 -27.892816 -4.452550 -22.368100 4.313790 8.321203 0.000000 0.000000 0.000000 7.125000 0.000000 0.000000 3.901983 38.939586 0.583600
10.444810 17.622685 -7.243798 614.125945 -90.587138 -591.877043 0.000000 0.000000 0.000000 -16.319886 -9.709551 -50.494142 6.000132 14.425942 44.977424 0.034406 1.948956 3.358861 0.312551 -3.594156 -9.937518 0.000000 0.000000 0.000000 17.662338 16.141785 -43.137636 -5.167265 -13.569621 41.540276 0.100238 -5.769842 -3.561619 -0.016596 -0.828839 2.277996 4.412851 -1.830628 24.186857 -0.427573 -1.753061 5.898282 -2.456111 -1.072433 -7.069565 3.841237 1.430862 5.189153 -0.925745 1.961069 -18.472725 -1.056297 0.612862 -6.411876 0.000000 0.000000 0.000000 5.016064 1.116119 -32.170554 17.388538 -27.367199 4.264417 19.386737 -19.179852 -9.143629 0.000000 0.000000 0.000000 -7.125000 0.000000 0.000000 -6.583564 39.580581 -0.883798 0.000000 0.000000 0.000000 0.015909 -1.971076 27.000425 -17.770748 -27.862597 -4.441549 -22.373785 4.367489 8.353642 0.000000 0.000000 0.000000 7.125000 0.000000 0.000000 3.900662 38.974840 0.580053
10.683008 17.665573 -7.246777 611.086109 -90.965338 -588.622134 0.000000 0.000000 0.000000 -16.455424 -9.899359 -49.520685 6.805841 15.164724 48.133620 0.030342 1.638498 3.129515 0.320253 -3.637728 -10.059610 0.000000 0.000000 0.000000 16.966643 16.277096 -43.823048 -4.960457 -13.338877 40.651104 0.132141 -6.451993 -2.888100 -0.031497 -1.143898 3.144811 4.324989 -1.886609 24.171429 -0.486373 -1.842454 5.824041 -2.442912 -1.113439 -7.150951 3.877841 1.400734 5.208925 -0.946463 1.915723 -18.669968 -1.067290 0.583450 -6.478738 0.000000 0.000000 0.000000 5.116298 1.184735 -32.162427 17.286292 -27.233679 4.217538 19.345282 -19.062165 -9.185980 0.000000 0.000000 0.000000 -7.125000 0.000000 0.000000 -6.625777 39.621630 -0.882741 0.000000 0.000000 0.000000 -0.012274 -1.886805 26.842324 -17.791225 -27.888937 -4.451116 -22.430482 4.357109 8.361023 0.000000 0.000000 0.000000 7.125000 0.000000 0.000000 3.852558 38.987038 0.571759
10.917917 17.713757 -7.246634 609.569796 -91.213864 -586.986124 0.000000 0.000000 0.000000 -16.522149 -9.923144 -48.195673 7.520901 15.755014 50.817416 0.044606 0.939256 3.769302 0.355959 -3.832941 -10.607122 0.000000 0.000000 0.000000 16.393103 16.398908 -44.237385 -4.699076 -13.036668 39.505965 0.163017 -7.164455 -1.997090 -0.065187 -1.646511 4.529816 4.316475 -1.929215 24.163667 -0.515589 -1.895767 5.771978 -2.453588 -1.138512 -7.209636 3.890957 1.384778 5.236889 -0.959669 1.891726 -18.780018 -1.073077 0.568544 -6.519130 0.000000 0.000000 0.000000 5.202487 1.221966 -32.131375 17.183234 -27.098745 4.170498 19.391782 -19.006437 -9.202473 0.000000 0.000000 0.000000 -7.125000 0.000000 0.000000 -6.588068 39.642637 -0.874244 0.000000 0.000000 0.000000 -0.053191 -1.801705 26.757652 -17.810533 -27.913854 -4.460175 -22.499240 4.295680 8.341062 0.000000 0.000000 0.000000 7.125000 0.000000 0.000000 3.791078 38.970871 0.564093
11.150938 17.760206 -7.242821 610.305247 -91.342691 -587.701544 0.000000 0.000000 0.000000 -16.562025 -9.775840 -46.582183 8.137705 16.219187 53.056685 0.078867 0.225083 5.221351 0.401257 -4.066685 -11.264395 0.000000 0.000000 0.000000 15.890890 16.530433 -44.473906 -4.419074 -12.697883 38.248076 0.190121 -7.933579 -0.900440 -0.125641 -2.282763 6.287891 4.332259 -1.940034 24.144881 -0.523150 -1.905355 5.756276 -2.468318 -1.142919 -7.218865 3.872979 1.379403 5.233765 -0.961292 1.882655 -18.753201 -1.069783 0.566532 -6.510383 0.000000 0.000000 0.000000 5.252732 1.209470 -32.040017 17.089665 -26.975847 4.127905 19.479819 -18.960094 -9.215986 0.000000 0.000000 0.000000 -7.125000 0.000000 0.000000 -6.513953 39.663896 -0.860960 0.000000 0.000000 0.000000 -0.103969 -1.774029 26.730469 -17.796201 -27.895389 -4.453425 -22.538498 4.235294 8.335586 0.000000 0.000000 0.000000 7.125000 0.000000 0.000000 3.756552 38.967969 0.559199
11.381532 17.800397 -7.234780 612.219720 -91.387951 -589.717155 0.000000 0.000000 0.000000 -16.617273 -9.466410 -44.718001 8.646265 16.574229 54.857833 0.145092 -0.243527 7.271413 0.433096 -4.223242 -11.705535 0.000000 0.000000 0.000000 15.492676 16.561698 -44.586519 -4.147297 -12.353486 36.994787 0.204120 -8.643962 0.365495 -0.192519 -2.823808 7.788649 4.378267 -1.937135 24.124447 -0.522745 -1.893370 5.777213 -2.498481 -1.137670 -7.185302 3.852192 1.376451 5.255296 -0.985211 1.876632 -18.653422 -1.073175 0.570839 -6.482240 0.000000 0.000000 0.000000 5.277356 1.184882 -31.900396 17.028454 -26.895202 4.100156 19.595184 -18.888529 -9.238225 0.000000 0.000000 0.000000 -7.125000 0.000000 0.000000 -6.417353 39.696562 -0.842818 0.000000 0.000000 0.000000 -0.150017 -1.785012 26.746053 -17.765019 -27.855176 -4.438873 -22.489076 4.190722 8.348730 0.000000 0.000000 0.000000 7.125000 0.000000 0.000000 3.800681 38.978362 0.564782
11.609293 17.831108 -7.222622 614.651190 -91.409037 -592.376187 0.000000 0.000000 0.000000 -16.756143 -8.988966 -42.637779 9.017253 16.818626 56.149433 0.253206 -0.463718 9.669254 0.435141 -4.233191 -11.733567 0.000000 0.000000 0.000000 15.183213 16.450696 -44.605261 -3.896982 -12.021671 35.809196 0.198417 -9.217763 1.738524 -0.260602 -3.282715 9.067033 4.430092 -1.940681 24.115444 -0.519859 -1.890267 5.820915 -2.526601 -1.136775 -7.133049 3.827371 1.380889 5.360898 -1.045979 1.880267 -18.545016 -1.089067 0.584431 -6.465342 0.000000 0.000000 0.000000 5.284003 1.197701 -31.773923 17.016881 -26.879973 4.094958 19.758976 -18.858381 -9.179212 0.000000 0.000000 0.000000 -7.125000 0.000000 0.000000 -6.266922 39.647671 -0.830484 0.000000 0.000000 0.000000 -0.197004 -1.807250 26.811360 -17.726336 -27.805329 -4.420803 -22.405270 4.151753 8.352270 0.000000 0.000000 0.000000 7.125000 0.000000 0.000000 3.873362 38.975803 0.575886
